<?xml version="1.0" encoding="UTF-8"?>
<svg width="50px" height="50px" viewBox="0 0 50 50" version="1.1" xmlns="http://www.w3.org/2000/svg" xmlns:xlink="http://www.w3.org/1999/xlink">
    <!-- Generator: Sketch 52.4 (67378) - http://www.bohemiancoding.com/sketch -->
    <title>Untitled</title>
    <desc>Created with Sketch.</desc>
    <g id="Page-1" stroke="none" stroke-width="1" fill="none" fill-rule="evenodd">
        <g id="facebook">
            <polygon id="Polygon" fill-opacity="0.5" fill="#FFFFFF" points="25 0 46.6506351 12.5 46.6506351 37.5 25 50 3.34936491 37.5 3.34936491 12.5"></polygon>
            <g id="facebook-f-brands" transform="translate(16.000000, 10.000000)" fill="#111111">
                <path d="M5.14848485,31 L5.14848485,17.1347656 L0.5,17.1347656 L0.5,11.625 L5.14848485,11.625 L5.14848485,7.28378906 C5.14848485,2.5671875 8.03333333,0 12.2454545,0 C14.2636364,0 15.9969697,0.151367188 16.5,0.21796875 L16.5,5.14648438 L13.5787879,5.14648438 C11.2878788,5.14648438 10.8454545,6.23632812 10.8454545,7.82871094 L10.8454545,11.625 L16.0151515,11.625 L15.3060606,17.1347656 L10.8454545,17.1347656 L10.8454545,31" id="Path"></path>
            </g>
        </g>
    </g>
</svg>