<?xml version="1.0" encoding="UTF-8"?>
<svg width="50px" height="50px" viewBox="0 0 50 50" version="1.1" xmlns="http://www.w3.org/2000/svg" xmlns:xlink="http://www.w3.org/1999/xlink">
    <!-- Generator: Sketch 52.4 (67378) - http://www.bohemiancoding.com/sketch -->
    <title>Untitled</title>
    <desc>Created with Sketch.</desc>
    <g id="Page-1" stroke="none" stroke-width="1" fill="none" fill-rule="evenodd">
        <g id="facebook">
            <polygon id="Polygon" fill-opacity="0.5" fill="#FFFFFF" points="25 0 46.6506351 12.5 46.6506351 37.5 25 50 3.34936491 37.5 3.34936491 12.5"></polygon>
            <g id="instagram-brands" transform="translate(10.000000, 11.000000)" fill="#111111" fill-rule="nonzero">
                <path d="M15.0032348,7.06476626 C10.8885666,7.06476626 7.56965979,10.3844137 7.56965979,14.5 C7.56965979,18.6155863 10.8885666,21.9352337 15.0032348,21.9352337 C19.117903,21.9352337 22.4368098,18.6155863 22.4368098,14.5 C22.4368098,10.3844137 19.117903,7.06476626 15.0032348,7.06476626 Z M15.0032348,19.3338726 C12.3442276,19.3338726 10.1704406,17.1660716 10.1704406,14.5 C10.1704406,11.8339284 12.3377579,9.66612741 15.0032348,9.66612741 C17.6687117,9.66612741 19.836029,11.8339284 19.836029,14.5 C19.836029,17.1660716 17.6622421,19.3338726 15.0032348,19.3338726 Z M24.4747351,6.76062702 C24.4747351,7.72481312 23.6983826,8.49486779 22.7408812,8.49486779 C21.7769102,8.49486779 21.0070273,7.71834207 21.0070273,6.76062702 C21.0070273,5.80291197 21.7833798,5.02638625 22.7408812,5.02638625 C23.6983826,5.02638625 24.4747351,5.80291197 24.4747351,6.76062702 Z M29.3981037,8.52075198 C29.2881205,6.19764588 28.7576129,4.13985273 27.0561071,2.44443825 C25.3610708,0.749023764 23.3037368,0.218397858 20.9811489,0.101919 C18.5873954,-0.0339730001 11.4126046,-0.0339730001 9.01885109,0.101919 C6.70273285,0.21192681 4.64539877,0.742552717 2.94389292,2.4379672 C1.24238706,4.13338168 0.718349136,6.19117483 0.601896263,8.51428093 C0.466034579,10.9085686 0.466034579,18.0849604 0.601896263,20.479248 C0.711879532,22.8023541 1.24238706,24.8601473 2.94389292,26.5555618 C4.64539877,28.2509762 6.69626325,28.7816021 9.01885109,28.898081 C11.4126046,29.033973 18.5873954,29.033973 20.9811489,28.898081 C23.3037368,28.7880732 25.3610708,28.2574473 27.0561071,26.5555618 C28.7511433,24.8601473 29.2816509,22.8023541 29.3981037,20.479248 C29.5339654,18.0849604 29.5339654,10.9150396 29.3981037,8.52075198 Z M26.305633,23.0482539 C25.8010039,24.3165793 24.8240937,25.2937075 23.5495817,25.8049202 C21.6410485,26.5620328 17.1123257,26.3873145 15.0032348,26.3873145 C12.8941439,26.3873145 8.35895148,26.5555618 6.4568879,25.8049202 C5.18884551,25.3001785 4.2119353,24.3230503 3.70083659,23.0482539 C2.94389292,21.1392949 3.11857223,16.6095615 3.11857223,14.5 C3.11857223,12.3904385 2.95036252,7.85423407 3.70083659,5.95174607 C4.2054657,4.68342073 5.18237591,3.70629254 6.4568879,3.19507977 C8.36542108,2.4379672 12.8941439,2.61268548 15.0032348,2.61268548 C17.1123257,2.61268548 21.6475181,2.44443825 23.5495817,3.19507977 C24.8176241,3.69982149 25.7945343,4.67694968 26.305633,5.95174607 C27.0625767,7.86070512 26.8878974,12.3904385 26.8878974,14.5 C26.8878974,16.6095615 27.0625767,21.1457659 26.305633,23.0482539 Z" id="Shape"></path>
            </g>
        </g>
    </g>
</svg>